<svg id="visual" viewBox="0 0 900 600" width="900" height="600" xmlns="http://www.w3.org/2000/svg" xmlns:xlink="http://www.w3.org/1999/xlink" version="1.1"><rect x="0" y="0" width="900" height="600" fill="#901B20"></rect><path d="M0 451L30 451.8C60 452.7 120 454.3 180 454C240 453.7 300 451.3 360 446.5C420 441.7 480 434.3 540 437.5C600 440.7 660 454.3 720 458.7C780 463 840 458 870 455.5L900 453L900 601L870 601C840 601 780 601 720 601C660 601 600 601 540 601C480 601 420 601 360 601C300 601 240 601 180 601C120 601 60 601 30 601L0 601Z" fill="#FFF" stroke-linecap="round" stroke-linejoin="miter"></path></svg>