<svg id="visual" viewBox="0 0 900 600" width="900" height="600" xmlns="http://www.w3.org/2000/svg" xmlns:xlink="http://www.w3.org/1999/xlink" version="1.1"><rect x="0" y="0" width="900" height="600" fill="#901B20"></rect><path d="M0 463L25 463.7C50 464.3 100 465.7 150 458.5C200 451.3 250 435.7 300 425.7C350 415.7 400 411.3 450 417.7C500 424 550 441 600 451.3C650 461.7 700 465.3 750 451.8C800 438.3 850 407.7 875 392.3L900 377L900 601L875 601C850 601 800 601 750 601C700 601 650 601 600 601C550 601 500 601 450 601C400 601 350 601 300 601C250 601 200 601 150 601C100 601 50 601 25 601L0 601Z" fill="#FFF" stroke-linecap="round" stroke-linejoin="miter"></path></svg>